HIERARCHY
ROOT Hips
{
	OFFSET -0.001795 -0.223333 0.028219
	CHANNELS 6 Xposition Yposition Zposition Zrotation Yrotation Xrotation 
	JOINT LeftUpLeg
	{
		OFFSET 0.069520 -0.091406 -0.006815
		CHANNELS 3 Zrotation Yrotation Xrotation
		JOINT LeftLeg
		{
			OFFSET 0.034277 -0.375199 -0.004496
			CHANNELS 3 Zrotation Yrotation Xrotation
			JOINT LeftFoot
			{
				OFFSET -0.013596 -0.397961 -0.043693
				CHANNELS 3 Zrotation Yrotation Xrotation
				JOINT LeftToe
				{
					OFFSET 0.026358 -0.055791 0.119288
					CHANNELS 3 Zrotation Yrotation Xrotation
					End Site
					{
						OFFSET 0.000000 0.000000 0.000000
					}
				}
			}
		}
	}
	JOINT RightUpLeg
	{
		OFFSET -0.067670 -0.090522 -0.004320
		CHANNELS 3 Zrotation Yrotation Xrotation
		JOINT RightLeg
		{
			OFFSET -0.038290 -0.382569 -0.008850
			CHANNELS 3 Zrotation Yrotation Xrotation
			JOINT RightFoot
			{
				OFFSET 0.015774 -0.398415 -0.042312
				CHANNELS 3 Zrotation Yrotation Xrotation
				JOINT RightToe
				{
					OFFSET -0.025372 -0.048144 0.123348
					CHANNELS 3 Zrotation Yrotation Xrotation
					End Site
					{
						OFFSET 0.000000 0.000000 0.000000
					}
				}
			}
		}
	}
	JOINT Spine
	{
		OFFSET -0.002533 0.108963 -0.026696
		CHANNELS 3 Zrotation Yrotation Xrotation
		JOINT Spine1
		{
			OFFSET 0.005487 0.135180 0.001092
			CHANNELS 3 Zrotation Yrotation Xrotation
			JOINT Spine2
			{
				OFFSET 0.001457 0.052922 0.025425
				CHANNELS 3 Zrotation Yrotation Xrotation
				JOINT Neck
				{
					OFFSET -0.002778 0.213870 -0.042857
					CHANNELS 3 Zrotation Yrotation Xrotation
					JOINT Head
					{
						OFFSET 0.005152 0.064970 0.051349
						CHANNELS 3 Zrotation Yrotation Xrotation
						End Site
						{
							OFFSET 0.000000 0.000000 0.000000
						}
					}
				}
				JOINT LeftShoulder
				{
					OFFSET 0.078845 0.121749 -0.034090
					CHANNELS 3 Zrotation Yrotation Xrotation
					JOINT LeftArm
					{
						OFFSET 0.090977 0.030469 -0.008868
						CHANNELS 3 Zrotation Yrotation Xrotation
						JOINT LeftForeArm
						{
							OFFSET 0.259612 -0.012772 -0.027456
							CHANNELS 3 Zrotation Yrotation Xrotation
							JOINT LeftHand
							{
								OFFSET 0.249234 0.008986 -0.001171
								CHANNELS 3 Zrotation Yrotation Xrotation
								End Site
								{
									OFFSET 0.000000 0.000000 0.000000
								}
							}
						}
					}
				}
				JOINT RightShoulder
				{
					OFFSET -0.081759 0.118833 -0.038615
					CHANNELS 3 Zrotation Yrotation Xrotation
					JOINT RightArm
					{
						OFFSET -0.096012 0.032551 -0.009143
						CHANNELS 3 Zrotation Yrotation Xrotation
						JOINT RightForeArm
						{
							OFFSET -0.253742 -0.013329 -0.021401
							CHANNELS 3 Zrotation Yrotation Xrotation
							JOINT RightHand
							{
								OFFSET -0.255298 0.007772 -0.005559
								CHANNELS 3 Zrotation Yrotation Xrotation
								End Site
								{
									OFFSET 0.000000 0.000000 0.000000
								}
							}
						}
					}
				}
			}
		}
	}
}
MOTION
Frames: 5
Frame Time: 0.050000
-0.030774 0.083125 -0.053218 -1.514098 1.584192 -82.379375 11.738161 1.865287 -2.341977 -12.753597 0.692992 -8.375367 1.171273 13.746283 41.169501 0.000000 0.000000 0.000000 -7.567418 -1.209764 -3.000268 13.499807 -1.267620 -7.293116 -13.705280 -24.911007 42.175543 0.000000 0.000000 0.000000 3.052370 3.189725 -34.861041 -3.030931 1.513535 -3.830885 -0.154558 -0.058274 36.968456 3.729702 -0.488286 -23.175307 0.000000 0.000000 0.000000 9.977430 -1.091714 0.772965 -73.047586 1.221262 -15.955515 -16.589794 -23.266715 4.340007 0.000000 0.000000 0.000000 1.024440 -5.259067 -2.296725 62.109958 -9.535104 -14.420894 11.706362 20.265696 2.470732 0.000000 0.000000 0.000000 
-0.030880 0.082214 -0.053580 -1.581449 1.558154 -82.438737 11.854807 1.881454 -2.278660 -12.891781 0.677265 -8.509477 1.255587 13.830442 41.162454 0.000000 0.000000 0.000000 -7.392544 -1.179829 -2.937656 13.179092 -1.240980 -7.455345 -13.652854 -24.819876 42.449219 0.000000 0.000000 0.000000 3.090144 3.211598 -34.752032 -2.972542 1.488987 -3.789233 -0.254454 0.054762 36.835357 3.888307 -0.563564 -23.065441 0.000000 0.000000 0.000000 9.760387 -1.260094 0.833758 -72.865751 1.217623 -15.970249 -16.512410 -23.481327 4.356082 0.000000 0.000000 0.000000 0.694081 -5.264492 -2.280601 62.143970 -9.704403 -14.435244 11.490312 20.627046 2.485638 0.000000 0.000000 0.000000 
-0.030945 0.081544 -0.053764 -1.652412 1.559519 -82.461961 11.971629 1.905382 -2.289773 -13.089797 0.676396 -8.547671 1.827003 14.305009 41.007894 0.000000 0.000000 0.000000 -7.194587 -1.142390 -2.937416 12.909898 -1.214545 -7.590330 -13.830780 -24.964299 42.355723 0.000000 0.000000 0.000000 3.038550 3.164482 -34.687762 -2.993832 1.497018 -3.728634 -0.188230 0.106028 36.704616 3.940579 -0.596817 -22.998289 0.000000 0.000000 0.000000 9.776328 -1.198343 0.813500 -72.858066 1.296478 -16.014596 -16.201248 -23.556052 4.299666 0.000000 0.000000 0.000000 0.469907 -5.339879 -2.303220 62.104559 -9.825074 -14.460679 11.420075 21.001147 2.525451 0.000000 0.000000 0.000000 
-0.030904 0.080512 -0.053790 -1.809077 1.574699 -82.498086 12.095957 1.921988 -2.424652 -13.328108 0.683001 -8.416592 2.123397 14.571889 40.950524 0.000000 0.000000 0.000000 -6.920210 -1.090962 -2.899794 12.456658 -1.186896 -7.673560 -13.511062 -24.624289 42.491982 0.000000 0.000000 0.000000 3.030044 3.138700 -34.576340 -2.945599 1.479307 -3.866273 -0.278463 0.110030 36.706947 4.057016 -0.628795 -23.188751 0.000000 0.000000 0.000000 9.832007 -1.090929 0.793922 -72.585829 1.464039 -16.079043 -16.406943 -23.597318 4.337705 0.000000 0.000000 0.000000 -0.060512 -5.325684 -2.276336 62.345453 -10.040859 -14.553764 11.397032 21.401567 2.570890 0.000000 0.000000 0.000000 
-0.030747 0.080015 -0.053706 -1.930678 1.696681 -82.543619 12.000036 1.899483 -2.451855 -13.398321 0.677612 -8.394540 2.702254 15.057197 40.801600 0.000000 0.000000 0.000000 -6.551653 -1.026322 -2.800070 11.778276 -1.147127 -7.733550 -13.383354 -24.484519 42.282088 0.000000 0.000000 0.000000 2.836905 2.996219 -34.616681 -2.830410 1.427148 -3.830450 -0.187699 0.187286 36.851159 4.151579 -0.695903 -22.965593 0.000000 0.000000 0.000000 9.662876 -1.084672 0.780825 -72.299455 1.673240 -16.197072 -16.305775 -23.834300 4.351033 0.000000 0.000000 0.000000 -0.430145 -5.528260 -2.344800 62.756187 -9.961256 -14.596986 11.038964 21.642413 2.551844 0.000000 0.000000 0.000000 
